<?xml version="1.0" ?><!DOCTYPE svg  PUBLIC '-//W3C//DTD SVG 1.1//EN'  'http://www.w3.org/Graphics/SVG/1.1/DTD/svg11.dtd'><svg enable-background="new 0 0 100 100" height="100px" id="Layer_1" version="1.1" viewBox="0 0 100 100" width="100px" xml:space="preserve" xmlns="http://www.w3.org/2000/svg" xmlns:xlink="http://www.w3.org/1999/xlink"><g><path d="M4,49.829c0,25.352,20.625,45.978,45.978,45.978c25.352,0,45.977-20.625,45.977-45.978S75.33,3.852,49.978,3.852   C24.625,3.852,4,24.477,4,49.829z M93.955,49.829c0,24.25-19.728,43.978-43.977,43.978C25.729,93.806,6,74.078,6,49.829   C6,25.58,25.729,5.852,49.978,5.852C74.227,5.852,93.955,25.58,93.955,49.829z"/><path d="M37.867,21.395c-8.741,0-15.852,7.11-15.852,15.85c0,2.813,0.746,5.566,2.162,7.988c-0.239,1.441-0.36,2.894-0.36,4.325   c0,14.583,11.862,26.446,26.443,26.446c1.522,0,3.062-0.136,4.583-0.405c2.384,1.363,5.091,2.082,7.854,2.082   c8.74,0,15.85-7.11,15.85-15.849c0-2.835-0.755-5.604-2.188-8.035c0.229-1.423,0.346-2.847,0.346-4.239   c0-14.581-11.864-26.444-26.446-26.444c-1.49,0-3,0.13-4.494,0.387C43.37,22.121,40.647,21.395,37.867,21.395z M74.706,49.557   c0,1.398-0.127,2.834-0.378,4.267c-0.042,0.243,0.006,0.492,0.136,0.701c1.364,2.191,2.084,4.717,2.084,7.307   c0,7.636-6.213,13.849-13.85,13.849c-2.527,0-5-0.688-7.151-1.988c-0.157-0.095-0.336-0.145-0.518-0.145   c-0.062,0-0.125,0.006-0.188,0.018c-1.518,0.291-3.06,0.438-4.581,0.438c-13.478,0-24.443-10.967-24.443-24.446   c0-1.436,0.132-2.897,0.393-4.344c0.043-0.243-0.004-0.493-0.134-0.703c-1.348-2.183-2.061-4.696-2.061-7.266   c0-7.637,6.214-13.85,13.852-13.85c2.542,0,5.029,0.695,7.19,2.01c0.211,0.128,0.462,0.176,0.703,0.128   c1.495-0.279,3.009-0.42,4.5-0.42C63.739,25.113,74.706,36.078,74.706,49.557z"/><path d="M35.458,42.23c0,7.908,7.467,9.708,13.467,11.153c4.44,1.07,7.136,1.852,7.136,3.693c0,1.18-1.127,3.411-5.394,3.411   c-3.326,0-4.703-1.634-6.161-3.363c-1.233-1.464-2.509-2.977-4.859-2.977c-2.18,0-3.966,1.914-3.981,4.265   c-0.013,2.02,0.803,3.916,2.36,5.483c2.737,2.755,7.769,4.466,13.133,4.466c8.828,0,14.759-4.99,14.76-12.416   c0-7.934-8.069-9.867-13.961-11.278c-3.206-0.768-6.521-1.562-6.521-2.961c0-2.597,3.306-2.798,4.319-2.798   c3.229,0,4.686,1.373,6.094,2.7c1.172,1.105,2.385,2.249,4.387,2.249c1.519,0,2.835-0.533,3.708-1.502   c0.828-0.919,1.206-2.168,1.061-3.549c-0.5-3.631-5.224-7.784-14.41-8.324C41.563,29.95,35.458,34.806,35.458,42.23z    M50.477,32.477c7.62,0.448,12.151,3.735,12.542,6.569c0.083,0.789-0.111,1.47-0.561,1.97c-0.495,0.55-1.263,0.84-2.222,0.84   c-1.151,0-1.86-0.616-3.015-1.704c-1.534-1.446-3.442-3.245-7.466-3.245c-3.838,0-6.319,1.883-6.319,4.798   c0,2.977,3.732,3.871,8.054,4.906c5.825,1.396,12.428,2.978,12.428,9.333c-0.001,6.328-5.01,10.416-12.76,10.416   c-4.851,0-9.339-1.485-11.714-3.875c-1.19-1.198-1.789-2.564-1.779-4.061c0.007-1.1,0.805-2.278,1.981-2.278   c1.354,0,2.11,0.819,3.33,2.266c1.53,1.815,3.435,4.074,7.69,4.074c5.08,0,7.394-2.805,7.394-5.411c0-3.549-4.21-4.563-8.667-5.637   c-5.868-1.414-11.936-2.876-11.936-9.209C37.458,35.954,42.615,32.028,50.477,32.477z"/></g></svg>