<?xml version="1.0" ?><!DOCTYPE svg  PUBLIC '-//W3C//DTD SVG 1.1//EN'  'http://www.w3.org/Graphics/SVG/1.1/DTD/svg11.dtd'><svg height="512px" style="enable-background:new 0 0 512 512;" version="1.1" viewBox="0 0 512 512" width="512px" xml:space="preserve" xmlns="http://www.w3.org/2000/svg" xmlns:xlink="http://www.w3.org/1999/xlink"><g id="xing__x2C__logo__x2C__icons__x2C__social"><g><path d="M425.614,86.281C382.172,42.981,322.258,16,255.96,16c-66.297,0-126.212,26.981-169.654,70.281    c-43.438,43.448-70.277,103.49-70.277,169.792c0,66.155,26.839,126.202,70.277,169.654C129.748,469.166,189.663,496,255.96,496    c66.298,0,126.212-26.834,169.654-70.272c43.438-43.452,70.282-103.499,70.282-169.654    C495.896,189.771,469.053,129.729,425.614,86.281z M412.332,412.432c-39.993,39.993-95.261,64.835-156.372,64.835    s-116.379-24.842-156.372-64.835c-40.112-39.984-64.826-95.384-64.826-156.358c0-61.116,24.714-116.384,64.826-156.5    c39.993-39.993,95.261-64.708,156.372-64.708S372.339,59.58,412.332,99.573c40.117,40.116,64.821,95.384,64.821,156.5    C477.153,317.048,452.449,372.447,412.332,412.432z" style="fill:#262626;"/><polygon points="206.541,179 154.193,179 185.021,232.658 143.703,300 196.041,300 237.227,232.658   " style="fill:#262626;"/><polygon points="312.553,136 230.049,280.203 283.196,373 338.861,373 285.719,280.203 368.095,136   " style="fill:#262626;"/></g></g><g id="Layer_1"/></svg>